HIERARCHY
ROOT root
{
  OFFSET 0 93.2929 0
  CHANNELS 6 Xposition Yposition Zposition Zrotation Xrotation Yrotation
  JOINT torso_1
  {
    OFFSET 0 5.07867 -1.15138
    CHANNELS 6 Xposition Yposition Zposition Zrotation Xrotation Yrotation
    JOINT torso_2
    {
      OFFSET 0 5.61661 1.07143
      CHANNELS 6 Xposition Yposition Zposition Zrotation Xrotation Yrotation
      JOINT torso_3
      {
        OFFSET -1.02604e-17 5.98978 0.11501
        CHANNELS 6 Xposition Yposition Zposition Zrotation Xrotation Yrotation
        JOINT torso_4
        {
          OFFSET -1.10457e-17 6.50583 -0.443523
          CHANNELS 6 Xposition Yposition Zposition Zrotation Xrotation Yrotation
          JOINT torso_5
          {
            OFFSET -1.97295e-17 7.60548 -1.50593
            CHANNELS 6 Xposition Yposition Zposition Zrotation Xrotation Yrotation
            JOINT torso_6
            {
              OFFSET -2.53307e-17 9.49737 -0.914492
              CHANNELS 6 Xposition Yposition Zposition Zrotation Xrotation Yrotation
              JOINT torso_7
              {
                OFFSET -2.90401e-17 10.5513 1.57691
                CHANNELS 6 Xposition Yposition Zposition Zrotation Xrotation Yrotation
                JOINT neck_1
                {
                  OFFSET -1.29193e-17 4.78644 0.715339
                  CHANNELS 6 Xposition Yposition Zposition Zrotation Xrotation Yrotation
                  JOINT neck_2
                  {
                    OFFSET -1.8116e-17 4.82109 0.421791
                    CHANNELS 6 Xposition Yposition Zposition Zrotation Xrotation Yrotation
                    JOINT head
                    {
                      OFFSET -2.00958e-17 4.83041 0.765062
                      CHANNELS 6 Xposition Yposition Zposition Zrotation Xrotation Yrotation
                      End Site
                      {
                        OFFSET 0 0.1 0
                      }
                    }
                  }
                }
                JOINT l_shoulder
                {
                  OFFSET 1.23299 -7.60731 7.53374
                  CHANNELS 6 Xposition Yposition Zposition Zrotation Xrotation Yrotation
                  JOINT l_up_arm
                  {
                    OFFSET 12.9547 3.2495 -3.26872
                    CHANNELS 6 Xposition Yposition Zposition Zrotation Xrotation Yrotation
                    JOINT l_low_arm
                    {
                      OFFSET 29.2081 0.0598081 0.137039
                      CHANNELS 6 Xposition Yposition Zposition Zrotation Xrotation Yrotation
                      JOINT l_hand
                      {
                        OFFSET 24.234 0.0496219 0.113701
                        CHANNELS 6 Xposition Yposition Zposition Zrotation Xrotation Yrotation
                        End Site
                        {
                          OFFSET 0.1 0 0
                        }
                      }
                    }
                  }
                }
                JOINT r_shoulder
                {
                  OFFSET -1.23299 -7.60729 7.53365
                  CHANNELS 6 Xposition Yposition Zposition Zrotation Xrotation Yrotation
                  JOINT r_up_arm
                  {
                    OFFSET -12.9547 3.2495 -3.26872
                    CHANNELS 6 Xposition Yposition Zposition Zrotation Xrotation Yrotation
                    JOINT r_low_arm
                    {
                      OFFSET -29.2081 0.0598081 0.137039
                      CHANNELS 6 Xposition Yposition Zposition Zrotation Xrotation Yrotation
                      JOINT r_hand
                      {
                        OFFSET -24.234 0.0496218 0.113702
                        CHANNELS 6 Xposition Yposition Zposition Zrotation Xrotation Yrotation
                        End Site
                        {
                          OFFSET -0.1 0 0
                        }
                      }
                    }
                  }
                }
              }
            }
          }
        }
      }
    }
  }
  JOINT l_up_leg
  {
    OFFSET 9.23673 -4.20556 2.0327
    CHANNELS 6 Xposition Yposition Zposition Zrotation Xrotation Yrotation
    JOINT l_low_leg
    {
      OFFSET -0.852353 -38.7721 -0.655187
      CHANNELS 6 Xposition Yposition Zposition Zrotation Xrotation Yrotation
      JOINT l_foot
      {
        OFFSET -2.32622 -40.4017 -6.04875
        CHANNELS 6 Xposition Yposition Zposition Zrotation Xrotation Yrotation
        JOINT l_toes
        {
          OFFSET 0.779096 -9.8844 12.4959
          CHANNELS 6 Xposition Yposition Zposition Zrotation Xrotation Yrotation
          End Site
          {
            OFFSET 0 0 0.1
          }
        }
      }
    }
  }
  JOINT r_up_leg
  {
    OFFSET -9.23673 -4.20556 2.0327
    CHANNELS 6 Xposition Yposition Zposition Zrotation Xrotation Yrotation
    JOINT r_low_leg
    {
      OFFSET 0.852353 -38.7721 -0.655187
      CHANNELS 6 Xposition Yposition Zposition Zrotation Xrotation Yrotation
      JOINT r_foot
      {
        OFFSET 2.32622 -40.4017 -6.04875
        CHANNELS 6 Xposition Yposition Zposition Zrotation Xrotation Yrotation
        JOINT r_toes
        {
          OFFSET -0.779096 -9.8844 12.4959
          CHANNELS 6 Xposition Yposition Zposition Zrotation Xrotation Yrotation
          End Site
          {
            OFFSET 0 0 0.1
          }
        }
      }
    }
  }
}
MOTION
Frames: 5
Frame Time: 0.016667
0 93.2929 0 -0 0 -0 0 5.07867 -1.15138 -0 0 -0 0 5.61661 1.07143 -0 0 -0 -1.02604e-17 5.98978 0.11501 -0 0 -0 -1.10457e-17 6.50583 -0.443523 -0 0 -0 -1.97295e-17 7.60548 -1.50593 -0 0 -0 -2.53307e-17 9.49737 -0.914492 -0 0 -0 -2.90401e-17 10.5513 1.57691 -0 0 -0 -1.29193e-17 4.78644 0.715339 -0 0 -0 -1.8116e-17 4.82109 0.421791 -0 0 -0 -2.00958e-17 4.83041 0.765062 -0 0 -0 1.23299 -7.60731 7.53374 -0 0 -0 12.9547 3.2495 -3.26872 -0 0 -0 29.2081 0.0598081 0.137039 -0 0 -0 24.234 0.0496219 0.113701 -0 0 -0 -1.23299 -7.60729 7.53365 -0 0 -0 -12.9547 3.2495 -3.26872 -0 0 -0 -29.2081 0.0598081 0.137039 -0 0 -0 -24.234 0.0496218 0.113702 -0 0 -0 9.23673 -4.20556 2.0327 -0 0 -0 -0.852353 -38.7721 -0.655187 -0 0 -0 -2.32622 -40.4017 -6.04875 -0 0 -0 0.779096 -9.8844 12.4959 -0 0 -0 -9.23673 -4.20556 2.0327 -0 0 -0 0.852353 -38.7721 -0.655187 -0 0 -0 2.32622 -40.4017 -6.04875 -0 0 -0 -0.779096 -9.8844 12.4959 -0 0 -0 
-15.7488 92.9698 6.0405 1.91376 -0.0288025 -10.2127 0 5.07867 -1.15138 -0.939746 -2.21658 0.467967 0 5.61661 1.07143 -0.71947 -1.21865 0.24744 -1.02604e-17 5.98978 0.11501 -0.539112 -0.0514873 0.262456 -1.10457e-17 6.50583 -0.443523 -0.396126 1.48543 0.259018 -1.97295e-17 7.60548 -1.50593 -0.160168 2.23756 0.258389 -2.53307e-17 9.49737 -0.914492 0.170322 2.50671 -0.00897829 -2.90401e-17 10.5513 1.57691 -0.0965017 0.659233 0.0133989 -1.29193e-17 4.78644 0.715339 -0.463339 -1.40898 -3.14512 -1.8116e-17 4.82109 0.421791 1.09825 -2.22518 -1.54538 -2.00958e-17 4.83041 0.765062 1.9667 -1.37094 2.41415 1.23299 -7.60731 7.53374 -4.0863 0.588838 2.02408 12.9547 3.2495 -3.26872 -86.6942 -7.49669 8.3035 29.2081 0.0598081 0.137039 2.44161 -0.240597 -11.8452 24.234 0.0496219 0.113701 6.27885 0.880711 -19.0568 -1.23299 -7.60729 7.53365 5.52347 1.40289 -2.06156 -12.9547 3.2495 -3.26872 84.8804 0.953296 -4.06009 -29.2081 0.0598081 0.137039 -2.55845 -0.264944 12.4189 -24.234 0.0496218 0.113702 -0.326211 24.5657 10.1731 9.23673 -4.20556 2.0327 -2.01231 -2.17604 -6.03208 -0.852353 -38.7721 -0.655187 0.635072 -2.36496 0.0544003 -2.32622 -40.4017 -6.04875 -0.454105 2.06986 15.0569 0.779096 -9.8844 12.4959 2.42768e-16 -7.88329e-16 5.61405e-18 -9.23673 -4.20556 2.0327 -2.97199 -2.44103 14.7781 0.852353 -38.7721 -0.655187 1.14961 4.29266 0.0318721 2.32622 -40.4017 -6.04875 -3.66842 -2.82285 -15.0285 -0.779096 -9.8844 12.4959 -8.14274e-16 -5.52272e-16 -1.27334e-14 
-15.76 92.9693 6.05892 1.91222 -0.0316239 -10.1965 0 5.07867 -1.15138 -0.937572 -2.21444 0.467441 0 5.61661 1.07143 -0.717164 -1.21776 0.246951 -1.02604e-17 5.98978 0.11501 -0.537026 -0.0516493 0.262068 -1.10457e-17 6.50583 -0.443523 -0.394182 1.48333 0.25862 -1.97295e-17 7.60548 -1.50593 -0.158568 2.23425 0.257607 -2.53307e-17 9.49737 -0.914492 0.1715 2.50257 -0.0100677 -2.90401e-17 10.5513 1.57691 -0.0965578 0.659747 0.0134556 -1.29193e-17 4.78644 0.715339 -0.462863 -1.41076 -3.15709 -1.8116e-17 4.82109 0.421791 1.09842 -2.23619 -1.55092 -2.00958e-17 4.83041 0.765062 1.9704 -1.38517 2.4191 1.23299 -7.60731 7.53374 -4.08529 0.592395 2.02124 12.9547 3.2495 -3.26872 -86.689 -7.46867 8.31253 29.2081 0.0598081 0.137039 2.43952 -0.24017 -11.835 24.234 0.0496219 0.113701 6.28536 0.844493 -19.0738 -1.23299 -7.60729 7.53365 5.52014 1.405 -2.05663 -12.9547 3.2495 -3.26872 84.8729 0.954376 -4.04958 -29.2081 0.0598081 0.137039 -2.55373 -0.263932 12.3956 -24.234 0.0496218 0.113702 -0.278572 24.6074 10.1427 9.23673 -4.20556 2.0327 -2.01533 -2.14775 -6.0556 -0.852353 -38.7721 -0.655187 0.64046 -2.38497 0.054973 -2.32622 -40.4017 -6.04875 -0.432774 2.0704 15.0555 0.779096 -9.8844 12.4959 1.38233e-16 -7.91595e-16 8.88075e-18 -9.23673 -4.20556 2.0327 -2.96307 -2.42143 14.7677 0.852353 -38.7721 -0.655187 1.14824 4.28755 0.0318855 2.32622 -40.4017 -6.04875 -3.66093 -2.83223 -15.0283 -0.779096 -9.8844 12.4959 -4.82969e-16 -5.66168e-16 -1.27506e-14 
-15.7695 92.9676 6.07658 1.91656 -0.0207827 -10.1708 0 5.07867 -1.15138 -0.936699 -2.21475 0.46543 0 5.61661 1.07143 -0.715716 -1.21906 0.244738 -1.02604e-17 5.98978 0.11501 -0.535423 -0.0543424 0.259993 -1.10457e-17 6.50583 -0.443523 -0.392329 1.4785 0.256516 -1.97295e-17 7.60548 -1.50593 -0.157109 2.22829 0.255076 -2.53307e-17 9.49737 -0.914492 0.172221 2.49517 -0.0129912 -2.90401e-17 10.5513 1.57691 -0.0967401 0.660438 0.013523 -1.29193e-17 4.78644 0.715339 -0.462871 -1.41773 -3.1674 -1.8116e-17 4.82109 0.421791 1.09761 -2.24617 -1.55574 -2.00958e-17 4.83041 0.765062 1.97513 -1.39982 2.42474 1.23299 -7.60731 7.53374 -4.08158 0.596013 2.02118 12.9547 3.2495 -3.26872 -86.6818 -7.45073 8.32672 29.2081 0.0598081 0.137039 2.43751 -0.239762 -11.8251 24.234 0.0496219 0.113701 6.27206 0.818011 -19.094 -1.23299 -7.60729 7.53365 5.51815 1.40791 -2.05138 -12.9547 3.2495 -3.26872 84.8654 0.946786 -4.04653 -29.2081 0.0598081 0.137039 -2.54856 -0.262825 12.3702 -24.234 0.0496218 0.113702 -0.228794 24.6385 10.1095 9.23673 -4.20556 2.0327 -2.02405 -2.13175 -6.08021 -0.852353 -38.7721 -0.655187 0.647534 -2.41124 0.0557277 -2.32622 -40.4017 -6.04875 -0.413999 2.06883 15.054 0.779096 -9.8844 12.4959 3.75294e-16 -7.84187e-16 1.47262e-18 -9.23673 -4.20556 2.0327 -2.95912 -2.41088 14.7431 0.852353 -38.7721 -0.655187 1.14508 4.27576 0.0319157 2.32622 -40.4017 -6.04875 -3.65573 -2.85035 -15.029 -0.779096 -9.8844 12.4959 -1.98785e-16 -5.8393e-16 -1.27595e-14 
-15.778 92.966 6.09377 1.91417 -0.0120913 -10.1413 0 5.07867 -1.15138 -0.933802 -2.21259 0.462432 0 5.61661 1.07143 -0.712434 -1.21888 0.241783 -1.02604e-17 5.98978 0.11501 -0.532391 -0.0570521 0.257237 -1.10457e-17 6.50583 -0.443523 -0.389419 1.47108 0.253743 -1.97295e-17 7.60548 -1.50593 -0.155124 2.21876 0.251697 -2.53307e-17 9.49737 -0.914492 0.172818 2.4835 -0.0168584 -2.90401e-17 10.5513 1.57691 -0.0969053 0.661599 0.013678 -1.29193e-17 4.78644 0.715339 -0.462758 -1.43457 -3.17364 -1.8116e-17 4.82109 0.421791 1.09614 -2.25505 -1.5586 -2.00958e-17 4.83041 0.765062 1.98159 -1.40011 2.42397 1.23299 -7.60731 7.53374 -4.08455 0.604104 2.0179 12.9547 3.2495 -3.26872 -86.6694 -7.43672 8.34418 29.2081 0.0598081 0.137039 2.43537 -0.239325 -11.8146 24.234 0.0496219 0.113701 6.26849 0.797951 -19.1253 -1.23299 -7.60729 7.53365 5.52254 1.41477 -2.04351 -12.9547 3.2495 -3.26872 84.852 0.924518 -4.05233 -29.2081 0.0598081 0.137039 -2.54463 -0.261984 12.3508 -24.234 0.0496218 0.113702 -0.190729 24.6726 10.0794 9.23673 -4.20556 2.0327 -2.02443 -2.11546 -6.11784 -0.852353 -38.7721 -0.655187 0.653313 -2.4327 0.0563466 -2.32622 -40.4017 -6.04875 -0.401007 2.0615 15.0529 0.779096 -9.8844 12.4959 4.39858e-17 -7.94541e-16 1.1826e-17 -9.23673 -4.20556 2.0327 -2.95004 -2.39663 14.7129 0.852353 -38.7721 -0.655187 1.14149 4.26237 0.0319493 2.32622 -40.4017 -6.04875 -3.64721 -2.86378 -15.0294 -0.779096 -9.8844 12.4959 -1.98785e-16 -5.8393e-16 -1.27595e-14 
